<svg width="179" height="61" viewBox="0 0 179 61" fill="none" xmlns="http://www.w3.org/2000/svg">
<path d="M3.71876 59.6137V52.582H6.36074V51.6948H0.0222016V52.582H2.66419V59.6137H3.71876ZM5.59757 59.6137L6.48563 57.2291H9.83806L10.7039 59.6137H11.8695L8.77239 51.6948H7.60681L4.52079 59.6137H5.59757ZM9.50504 56.3419H6.81865L8.16184 52.6486H8.18405L9.50504 56.3419ZM17.134 59.6137V58.7264H12.938V51.6948H11.8834V59.6137H17.134ZM22.7982 59.6137V58.7264H18.3468V55.9869H22.4652V55.0997H18.3468V52.582H22.7649V51.6948H17.2922V59.6137H22.7982ZM24.2996 59.6137V53.2586H24.3218L28.4624 59.6137H29.6169V51.6948H28.6178V58.1164H28.5956L24.4217 51.6948H23.3005V59.6137H24.2996ZM33.4161 59.6137V52.582H36.0595V51.6948H29.7209V52.582H32.3629V59.6137H33.4175H33.4161ZM39.5951 59.6137V51.6948H38.5405V59.6137H39.5951ZM41.596 59.6137V53.2586H41.6182L45.7588 59.6137H46.9133V51.6948H45.9142V58.1164H45.892L41.7181 51.6948H40.5969V59.6137H41.596ZM53.5793 59.6137V53.1588H55.9548V51.6948H49.4609V53.1588H51.8365V59.6137H53.5793ZM62.1185 59.6137V58.1497H57.8447V56.2088H61.6856V54.8557H57.8447V53.1588H62.0297V51.6948H56.1019V59.6137H62.1185ZM66.0843 59.7911C66.5727 59.7911 67.0209 59.7177 67.4275 59.5693C67.8243 59.428 68.1883 59.2077 68.4974 58.9217C68.8065 58.6357 69.0543 58.2901 69.2258 57.9057C69.4118 57.5064 69.5255 57.06 69.5699 56.5637H67.8826C67.816 57.096 67.6329 57.5244 67.3331 57.8502C67.0334 58.176 66.6171 58.3382 66.0843 58.3382C65.693 58.3382 65.36 58.262 65.0852 58.1109C64.8181 57.9654 64.5898 57.7581 64.4192 57.5064C64.2458 57.2479 64.1199 56.9606 64.0473 56.6579C63.9692 56.3404 63.9301 56.0145 63.9308 55.6875C63.9308 55.3409 63.9696 55.004 64.0473 54.6782C64.1188 54.3683 64.2447 54.0735 64.4192 53.8076C64.5885 53.5534 64.817 53.344 65.0852 53.1976C65.36 53.0451 65.693 52.9702 66.0843 52.9702C66.3896 52.9696 66.69 53.046 66.9579 53.1924C67.2257 53.3388 67.4521 53.5504 67.6162 53.8076C67.7203 53.9739 67.7869 54.1569 67.816 54.3566H69.5033C69.4611 53.9287 69.3327 53.5137 69.1259 53.1366C68.9344 52.7914 68.6759 52.4879 68.3655 52.2438C68.0529 52.0006 67.6996 51.8147 67.322 51.6948C66.9219 51.5673 66.5042 51.5037 66.0843 51.5062C65.4779 51.5062 64.9326 51.613 64.4469 51.8279C63.9627 52.0427 63.5533 52.338 63.2203 52.7151C62.8873 53.0922 62.632 53.5331 62.4543 54.0405C62.2729 54.5705 62.1828 55.1274 62.1879 55.6875C62.1879 56.2642 62.2767 56.8021 62.4543 57.3012C62.632 57.8003 62.8873 58.2342 63.2203 58.6044C63.5533 58.9746 63.9627 59.2643 64.4469 59.475C64.9326 59.6858 65.4779 59.7911 66.0843 59.7911ZM71.7388 59.6137V56.1977H74.9469V59.6137H76.6897V51.6948H74.9469V54.7337H71.7388V51.6948H69.9959V59.6137H71.7388ZM78.5477 59.6137V53.2586H78.5699L82.7091 59.6137H83.8636V51.6948H82.8645V58.1164H82.8423L78.6684 51.6948H77.5472V59.6137H78.5463H78.5477ZM85.9103 59.6137V51.6948H84.8557V59.6137H85.9103ZM90.198 59.7911C91.2109 59.7911 92.0102 59.5139 92.5957 58.9593C93.1799 58.4048 93.5254 57.6284 93.6281 56.6302H92.5735C92.5543 56.9419 92.4869 57.2487 92.3737 57.5397C92.2733 57.809 92.1184 58.0548 91.9189 58.2618C91.7193 58.4688 91.4793 58.6326 91.2137 58.743C90.9195 58.8622 90.6042 58.9207 90.2868 58.9149C89.8642 58.9264 89.4451 58.835 89.0657 58.6488C88.7342 58.479 88.4472 58.234 88.2276 57.9334C88.001 57.6161 87.8371 57.2585 87.7447 56.8798C87.6391 56.461 87.5869 56.0306 87.5893 55.5988C87.5893 55.1842 87.6406 54.785 87.7447 54.401C87.8474 54.0169 88.0083 53.6745 88.2276 53.375C88.4454 53.0756 88.7229 52.8371 89.0601 52.6597C89.3959 52.4822 89.8011 52.3935 90.2757 52.3935C90.8307 52.3935 91.3094 52.5335 91.7132 52.8149C92.1156 53.0964 92.3765 53.5178 92.4958 54.0793H93.5504C93.5009 53.6862 93.3725 53.3071 93.173 52.9647C92.9882 52.6515 92.7429 52.3782 92.4514 52.1606C92.1532 51.9414 91.8188 51.7762 91.4634 51.6726C91.093 51.5617 90.7003 51.5062 90.2868 51.5062C89.679 51.5062 89.1406 51.6157 88.6716 51.8334C88.2176 52.0395 87.8155 52.3445 87.4949 52.7262C87.1799 53.1033 86.9413 53.5442 86.7789 54.0516C86.6132 54.5771 86.5308 55.1254 86.5347 55.6764C86.5347 56.2531 86.6096 56.7924 86.7623 57.2957C86.9149 57.7989 87.1411 58.2342 87.445 58.6044C87.7475 58.9746 88.1291 59.2643 88.5883 59.475C89.0462 59.6858 89.5833 59.7911 90.198 59.7911ZM97.5273 59.7911C98.1558 59.7911 98.7067 59.6788 99.1813 59.4529C99.6544 59.2269 100.051 58.9219 100.369 58.5379C100.688 58.1538 100.925 57.7116 101.085 57.2125C101.245 56.7134 101.324 56.1935 101.324 55.6542C101.324 55.1135 101.245 54.595 101.085 54.0959C100.934 53.6121 100.691 53.1621 100.369 52.7706C100.045 52.3813 99.6393 52.0672 99.1813 51.85C98.7081 51.6213 98.1558 51.5062 97.5273 51.5062C96.8987 51.5062 96.3478 51.6213 95.8732 51.85C95.4152 52.0672 95.0099 52.3813 94.6854 52.7706C94.3663 53.1546 94.129 53.5969 93.9694 54.0959C93.8099 54.595 93.7308 55.1149 93.7308 55.6542C93.7308 56.1949 93.8099 56.7134 93.9694 57.2125C94.129 57.7116 94.3677 58.1538 94.6854 58.5379C95.0046 58.9219 95.4001 59.2269 95.8732 59.4529C96.3464 59.6788 96.8987 59.7911 97.5273 59.7911ZM97.5273 58.9149C97.0458 58.9149 96.6322 58.8207 96.284 58.6321C95.9452 58.4515 95.6527 58.1954 95.4292 57.8835C95.2042 57.5666 95.0387 57.2114 94.9408 56.8354C94.7333 56.0616 94.7333 55.2469 94.9408 54.473C95.0389 54.0971 95.2044 53.742 95.4292 53.4249C95.6527 53.1131 95.9452 52.8569 96.284 52.6763C96.6309 52.4878 97.0471 52.3935 97.5273 52.3935C98.0087 52.3935 98.4222 52.4878 98.7705 52.6763C99.1093 52.8569 99.4017 53.1131 99.6253 53.4249C99.8473 53.7355 100.01 54.0849 100.114 54.473C100.321 55.2469 100.321 56.0616 100.114 56.8354C100.016 57.2114 99.8501 57.5665 99.6253 57.8835C99.4017 58.1954 99.1093 58.4515 98.7705 58.6321C98.4236 58.8207 98.0074 58.9149 97.5273 58.9149ZM107.099 59.6137V58.7264H102.903V51.6948H101.848V59.6137H107.099ZM110.61 59.7911C111.238 59.7911 111.789 59.6788 112.264 59.4529C112.737 59.2269 113.134 58.9219 113.451 58.5379C113.77 58.1538 114.008 57.7116 114.167 57.2125C114.327 56.7134 114.406 56.1935 114.406 55.6542C114.406 55.1135 114.327 54.595 114.167 54.0959C114.016 53.6121 113.773 53.1621 113.451 52.7706C113.127 52.3813 112.722 52.0672 112.264 51.85C111.79 51.6213 111.238 51.5062 110.61 51.5062C109.981 51.5062 109.43 51.6213 108.955 51.85C108.497 52.0672 108.092 52.3813 107.768 52.7706C107.449 53.1546 107.211 53.5969 107.052 54.0959C106.892 54.595 106.813 55.1149 106.813 55.6542C106.813 56.1949 106.892 56.7134 107.052 57.2125C107.211 57.7116 107.45 58.1538 107.768 58.5379C108.087 58.9219 108.482 59.2269 108.955 59.4529C109.429 59.6788 109.981 59.7911 110.61 59.7911ZM110.61 58.9149C110.128 58.9149 109.715 58.8207 109.366 58.6321C109.027 58.4515 108.735 58.1954 108.511 57.8835C108.286 57.5666 108.121 57.2114 108.023 56.8354C107.816 56.0616 107.816 55.2469 108.023 54.473C108.121 54.0971 108.287 53.742 108.511 53.4249C108.735 53.1131 109.027 52.8569 109.366 52.6763C109.713 52.4878 110.129 52.3935 110.61 52.3935C111.091 52.3935 111.505 52.4878 111.853 52.6763C112.192 52.8569 112.484 53.1131 112.708 53.4249C112.93 53.7355 113.092 54.0849 113.196 54.473C113.403 55.2469 113.403 56.0616 113.196 56.8354C113.098 57.2114 112.932 57.5665 112.708 57.8835C112.484 58.1954 112.192 58.4515 111.853 58.6321C111.506 58.8207 111.09 58.9149 110.61 58.9149ZM118.139 59.7911C119.138 59.7911 119.908 59.5374 120.448 59.0314C120.989 58.5254 121.258 57.7657 121.258 56.7522V51.6948H120.203V56.7522C120.203 57.462 120.027 57.9999 119.676 58.3659C119.325 58.7319 118.812 58.9149 118.139 58.9149C117.428 58.9149 116.884 58.7319 116.507 58.3659C116.129 57.9999 115.941 57.462 115.941 56.7522V51.6948H114.886V56.7522C114.886 57.81 115.173 58.5808 115.746 59.0647C116.319 59.5499 117.117 59.7911 118.139 59.7911ZM123.235 59.6137V56.2309H125.811C126.07 56.2309 126.277 56.2698 126.432 56.3474C126.581 56.4195 126.71 56.526 126.81 56.6579C126.907 56.7869 126.976 56.9394 127.021 57.1127C127.065 57.286 127.102 57.469 127.132 57.6617C127.169 57.8544 127.191 58.0499 127.198 58.2495C127.207 58.4491 127.212 58.6363 127.22 58.8096C127.229 58.9829 127.245 59.1409 127.27 59.2809C127.288 59.4037 127.34 59.519 127.42 59.6137H128.597C128.484 59.478 128.4 59.3216 128.347 59.1534C128.29 58.974 128.248 58.7904 128.219 58.6044C128.19 58.4097 128.171 58.2134 128.164 58.0166C128.157 57.8204 128.146 57.6245 128.131 57.4288C128.109 57.2423 128.078 57.0572 128.036 56.8742C127.999 56.7046 127.935 56.5419 127.848 56.3918C127.76 56.2452 127.643 56.1186 127.504 56.0202C127.335 55.9068 127.144 55.8312 126.943 55.7984V55.7762C127.424 55.6431 127.774 55.395 127.992 55.0331C128.211 54.6713 128.319 54.2498 128.319 53.7688C128.319 53.1255 128.107 52.6181 127.681 52.2493C127.257 51.8792 126.665 51.6948 125.911 51.6948H122.181V59.6137H123.235ZM125.433 55.3437H123.235V52.582H125.855C126.352 52.582 126.71 52.7068 126.932 52.9591C127.154 53.2101 127.265 53.5359 127.265 53.9351C127.265 54.2235 127.215 54.4578 127.115 54.6394C127.02 54.8149 126.883 54.9637 126.715 55.0719C126.538 55.1832 126.34 55.2568 126.133 55.2882C125.911 55.3257 125.677 55.3437 125.433 55.3437ZM24.9767 42.2342V39.7388H0V42.2342H24.9767ZM33.5729 36.0455V22.5201C33.5729 19.8916 34.0058 18.0034 34.8717 16.8554C35.7376 15.7075 37.1363 15.1336 39.0678 15.1336C40.7662 15.1336 41.9484 15.6576 42.6145 16.7057C43.2805 17.7538 43.6136 19.3426 43.6136 21.472V36.0455H50.707V20.1744C50.707 18.5773 50.5654 17.1216 50.2823 15.8074C49.9993 14.4931 49.5081 13.3784 48.8087 12.4634C48.1094 11.5484 47.1519 10.8331 45.9364 10.3174C44.7209 9.80163 43.164 9.54376 41.2657 9.54376C39.7671 9.54376 38.3018 9.88481 36.8698 10.5669C35.4378 11.249 34.2736 12.3387 33.3731 13.8359H33.2232V10.2425H26.4795V36.0455H33.5729ZM67.4469 36.6943C69.4784 36.6943 71.3183 36.3782 72.9668 35.746C74.6152 35.1139 76.0223 34.2072 77.1879 33.026C78.3534 31.8448 79.2526 30.4224 79.8853 28.7588C80.5181 27.0951 80.8345 25.2319 80.8345 23.1689C80.8345 21.106 80.5181 19.2344 79.8853 17.5542C79.2526 15.8739 78.3534 14.4432 77.1879 13.262C76.0223 12.0808 74.6152 11.1658 72.9668 10.517C71.3183 9.86817 69.4784 9.54376 67.4469 9.54376C65.4155 9.54376 63.5839 9.86817 61.952 10.517C60.3766 11.1288 58.9472 12.0639 57.7559 13.262C56.5904 14.4432 55.6912 15.8739 55.0585 17.5542C54.4257 19.2344 54.1093 21.106 54.1093 23.1689C54.1093 25.2319 54.4257 27.0951 55.0585 28.7588C55.6912 30.4224 56.5904 31.8448 57.7559 33.026C58.944 34.2218 60.3749 35.1494 61.952 35.746C63.5839 36.3782 65.4155 36.6943 67.4469 36.6943ZM67.4469 31.4039C66.248 31.4039 65.249 31.171 64.4497 30.7052C63.6625 30.2512 63.0014 29.6079 62.5265 28.8336C62.031 28.0195 61.6843 27.1238 61.5025 26.1884C61.7023 19.1263 62.0436 18.2446 62.5265 17.4793C63.0108 16.7126 63.6698 16.0713 64.4497 15.6077C65.249 15.1253 66.248 14.884 67.4469 14.884C68.6458 14.884 69.6532 15.1253 70.4691 15.6077C71.2598 16.0659 71.9281 16.7079 72.4173 17.4793C72.9002 18.2446 73.2415 19.1263 73.4413 20.1245C73.8413 22.1261 73.8413 24.1869 73.4413 26.1884L72.4173 28.8336C71.9374 29.6126 71.267 30.2567 70.4691 30.7052C69.6532 31.171 68.6458 31.4039 67.4469 31.4039ZM91.5287 36.0455V0.4104H84.4353V36.0455H91.5287ZM108.467 36.6943C110.498 36.6943 112.338 36.3782 113.987 35.746C115.635 35.1139 117.042 34.2072 118.208 33.026C119.374 31.8448 120.273 30.4224 120.905 28.7588C121.538 27.0951 121.855 25.2319 121.855 23.1689C121.855 21.106 121.538 19.2344 120.905 17.5542C120.273 15.8739 119.374 14.4432 118.208 13.262C117.042 12.0808 115.635 11.1658 113.987 10.517C112.338 9.86817 110.498 9.54376 108.467 9.54376C106.436 9.54376 104.604 9.86817 102.972 10.517C101.397 11.1288 99.9673 12.0639 98.7761 13.262C97.6105 14.4432 96.7113 15.8739 96.0786 17.5542C95.4458 19.2344 95.1295 21.106 95.1295 23.1689C95.1295 25.2319 95.4458 27.0951 96.0786 28.7588C96.7113 30.4224 97.6105 31.8448 98.7761 33.026C99.9642 34.2218 101.395 35.1494 102.972 35.746C104.604 36.3782 106.436 36.6943 108.467 36.6943ZM108.467 31.4039C107.268 31.4039 106.269 31.171 105.47 30.7052L103.547 28.8336C103.051 28.0195 102.704 27.1238 102.523 26.1884C102.123 24.1869 102.123 22.1261 102.523 20.1245C102.722 19.1263 103.064 18.2446 103.547 17.4793C104.031 16.7126 104.69 16.0713 105.47 15.6077C106.269 15.1253 107.268 14.884 108.467 14.884C109.666 14.884 110.673 15.1253 111.489 15.6077C113.92 18.2446 114.262 19.1263 114.461 20.1245C114.861 22.1261 114.861 24.1869 114.461 26.1884C114.28 27.1238 113.933 28.0195 113.437 28.8336C112.958 29.6126 112.287 30.2567 111.489 30.7052C110.673 31.171 109.666 31.4039 108.467 31.4039ZM136.695 45.7778C139.659 45.7778 142.023 45.3785 143.788 44.5799C145.553 43.7814 146.902 42.8082 147.835 41.6603C148.767 40.5124 149.375 39.2729 149.658 37.942C149.941 36.6111 150.082 35.43 150.082 34.3985V10.2425H143.339V13.6862H143.239C142.373 12.1889 141.299 11.1242 140.017 10.492C138.735 9.85986 137.244 9.54376 135.546 9.54376C133.748 9.54376 132.158 9.89313 130.775 10.5919L127.304 13.4117C126.35 14.6337 125.63 16.0212 125.181 17.5043C124.696 19.0636 124.452 20.6877 124.456 22.3205C124.456 24.0839 124.664 25.7559 125.081 27.3364C125.497 28.9168 126.155 30.2976 127.054 31.4788C127.965 32.6699 129.147 33.6279 130.501 34.2737C131.899 34.9558 133.565 35.2969 135.496 35.2969L139.967 34.3236C141.357 33.6985 142.505 32.6387 143.239 31.3041H143.339V34.6979C143.372 36.528 142.931 38.0419 142.015 39.2397C141.099 40.4375 139.642 41.0364 137.644 41.0364C136.379 41.0364 135.263 40.7785 134.297 40.2628C133.331 39.7471 132.682 38.8238 132.349 37.4929H125.306C125.405 38.9569 125.813 40.2129 126.529 41.261C127.235 42.2996 128.155 43.1759 129.227 43.8313C130.309 44.4968 131.508 44.9875 132.824 45.3036C134.139 45.6197 135.429 45.7778 136.695 45.7778ZM137.294 29.9566C136.195 29.9566 135.28 29.7237 134.547 29.2579C133.825 28.8033 133.218 28.1884 132.774 27.4611L131.824 24.9906C131.642 24.0786 131.55 23.1508 131.55 22.2207C131.55 21.2558 131.658 20.3324 131.874 19.4507C132.091 18.569 132.441 17.7871 132.923 17.105C133.406 16.4229 134.006 15.8822 134.722 15.4829C135.438 15.0837 136.295 14.884 137.294 14.884C138.46 14.884 139.426 15.1003 140.192 15.5329C140.958 15.9654 141.574 16.5477 142.04 17.2797C142.506 18.0117 142.839 18.8518 143.039 19.8001C143.239 20.7484 143.339 21.7549 143.339 22.8196C143.343 23.723 143.217 24.6222 142.964 25.4897C142.729 26.3081 142.349 27.0774 141.84 27.7606C141.341 28.426 140.708 28.9584 139.942 29.3577C139.176 29.757 138.293 29.9566 137.294 29.9566ZM158.43 45.079C160.861 45.079 162.76 44.6299 164.125 43.7315C165.49 42.8331 166.556 41.3359 167.322 39.2397L178.112 10.2425H170.769L165.124 27.9103H165.024L159.18 10.2425H151.637L160.678 34.4484C160.878 34.9475 160.978 35.4799 160.978 36.0455C160.978 36.8108 160.753 37.5095 160.304 38.1417C159.854 38.7739 159.163 39.1399 158.23 39.2397C157.531 39.2729 156.832 39.2563 156.132 39.1898C155.433 39.1232 154.75 39.0567 154.084 38.9901V44.8295C154.817 44.896 155.541 44.9543 156.257 45.0042C156.973 45.0541 157.698 45.079 158.43 45.079Z" fill="#4A2F73"/>
</svg>
