<svg width="179" height="61" viewBox="0 0 179 61" fill="none" xmlns="http://www.w3.org/2000/svg">
<path d="M3.71876 59.6134V52.5818H6.36074V51.6945H0.0222016V52.5818H2.66419V59.6134H3.71876ZM5.59757 59.6134L6.48563 57.2289H9.83806L10.7039 59.6134H11.8695L8.77239 51.6945H7.60681L4.52079 59.6134H5.59757ZM9.50504 56.3416H6.81865L8.16184 52.6483H8.18405L9.50504 56.3416ZM17.134 59.6134V58.7262H12.938V51.6945H11.8834V59.6134H17.134ZM22.7982 59.6134V58.7262H18.3468V55.9867H22.4652V55.0994H18.3468V52.5818H22.7649V51.6945H17.2922V59.6134H22.7982ZM24.2996 59.6134V53.2583H24.3218L28.4624 59.6134H29.6169V51.6945H28.6178V58.1162H28.5956L24.4217 51.6945H23.3005V59.6134H24.2996ZM33.4161 59.6134V52.5818H36.0595V51.6945H29.7209V52.5818H32.3629V59.6134H33.4175H33.4161ZM39.5951 59.6134V51.6945H38.5405V59.6134H39.5951ZM41.596 59.6134V53.2583H41.6182L45.7588 59.6134H46.9133V51.6945H45.9142V58.1162H45.892L41.7181 51.6945H40.5969V59.6134H41.596ZM53.5793 59.6134V53.1585H55.9548V51.6945H49.4609V53.1585H51.8365V59.6134H53.5793ZM62.1185 59.6134V58.1494H57.8447V56.2085H61.6856V54.8554H57.8447V53.1585H62.0297V51.6945H56.1019V59.6134H62.1185ZM66.0843 59.7909C66.5727 59.7909 67.0209 59.7174 67.4275 59.5691C67.8243 59.4277 68.1883 59.2074 68.4974 58.9215C68.8065 58.6355 69.0543 58.2899 69.2258 57.9054C69.4118 57.5062 69.5255 57.0597 69.5699 56.5634H67.8826C67.816 57.0958 67.6329 57.5242 67.3331 57.85C67.0334 58.1758 66.6171 58.338 66.0843 58.338C65.693 58.338 65.36 58.2617 65.0852 58.1106C64.8181 57.9651 64.5898 57.7579 64.4192 57.5062C64.2458 57.2476 64.1199 56.9603 64.0473 56.6577C63.9692 56.3401 63.9301 56.0143 63.9308 55.6872C63.9308 55.3407 63.9696 55.0038 64.0473 54.678C64.1188 54.3681 64.2447 54.0733 64.4192 53.8073C64.5885 53.5531 64.817 53.3438 65.0852 53.1973C65.36 53.0448 65.693 52.97 66.0843 52.97C66.3896 52.9693 66.69 53.0458 66.9579 53.1922C67.2257 53.3385 67.4521 53.5502 67.6162 53.8073C67.7203 53.9737 67.7869 54.1567 67.816 54.3563H69.5033C69.4611 53.9284 69.3327 53.5135 69.1259 53.1363C68.9344 52.7912 68.6759 52.4876 68.3655 52.2435C68.0529 52.0003 67.6996 51.8144 67.322 51.6945C66.9219 51.567 66.5042 51.5034 66.0843 51.506C65.4779 51.506 64.9326 51.6127 64.4469 51.8276C63.9627 52.0425 63.5533 52.3378 63.2203 52.7149C62.8873 53.092 62.632 53.5328 62.4543 54.0402C62.2729 54.5702 62.1828 55.1271 62.1879 55.6872C62.1879 56.264 62.2767 56.8019 62.4543 57.301C62.632 57.8001 62.8873 58.234 63.2203 58.6042C63.5533 58.9743 63.9627 59.2641 64.4469 59.4748C64.9326 59.6855 65.4779 59.7909 66.0843 59.7909ZM71.7388 59.6134V56.1974H74.9469V59.6134H76.6897V51.6945H74.9469V54.7334H71.7388V51.6945H69.9959V59.6134H71.7388ZM78.5477 59.6134V53.2583H78.5699L82.7091 59.6134H83.8636V51.6945H82.8645V58.1162H82.8423L78.6684 51.6945H77.5472V59.6134H78.5463H78.5477ZM85.9103 59.6134V51.6945H84.8557V59.6134H85.9103ZM90.198 59.7909C91.2109 59.7909 92.0102 59.5136 92.5957 58.9591C93.1799 58.4045 93.5254 57.6282 93.6281 56.63H92.5735C92.5543 56.9416 92.4869 57.2484 92.3737 57.5394C92.2733 57.8088 92.1184 58.0546 91.9189 58.2616C91.7193 58.4686 91.4793 58.6324 91.2137 58.7428C90.9195 58.862 90.6042 58.9204 90.2868 58.9147C89.8642 58.9261 89.4451 58.8348 89.0657 58.6485C88.7342 58.4787 88.4472 58.2337 88.2276 57.9332C88.001 57.6158 87.8371 57.2582 87.7447 56.8795C87.6391 56.4608 87.5869 56.0304 87.5893 55.5985C87.5893 55.184 87.6406 54.7847 87.7447 54.4007C87.8474 54.0167 88.0083 53.6742 88.2276 53.3748C88.4454 53.0753 88.7229 52.8369 89.0601 52.6594C89.3959 52.482 89.8011 52.3932 90.2757 52.3932C90.8307 52.3932 91.3094 52.5333 91.7132 52.8147C92.1156 53.0961 92.3765 53.5176 92.4958 54.0791H93.5504C93.5009 53.6859 93.3725 53.3068 93.173 52.9644C92.9882 52.6513 92.7429 52.3779 92.4514 52.1603C92.1532 51.9412 91.8188 51.776 91.4634 51.6723C91.093 51.5614 90.7003 51.506 90.2868 51.506C89.679 51.506 89.1406 51.6155 88.6716 51.8332C88.2176 52.0392 87.8155 52.3443 87.4949 52.726C87.1799 53.1031 86.9413 53.5439 86.7789 54.0513C86.6132 54.5769 86.5308 55.1251 86.5347 55.6762C86.5347 56.2529 86.6096 56.7922 86.7623 57.2954C86.9149 57.7987 87.1411 58.234 87.445 58.6042C87.7475 58.9743 88.1291 59.2641 88.5883 59.4748C89.0462 59.6855 89.5833 59.7909 90.198 59.7909ZM97.5273 59.7909C98.1558 59.7909 98.7067 59.6786 99.1813 59.4526C99.6544 59.2266 100.051 58.9216 100.369 58.5376C100.688 58.1536 100.925 57.7113 101.085 57.2123C101.245 56.7132 101.324 56.1933 101.324 55.654C101.324 55.1133 101.245 54.5948 101.085 54.0957C100.934 53.6119 100.691 53.1618 100.369 52.7703C100.045 52.3811 99.6393 52.0669 99.1813 51.8498C98.7081 51.621 98.1558 51.506 97.5273 51.506C96.8987 51.506 96.3478 51.621 95.8732 51.8498C95.4152 52.0669 95.0099 52.3811 94.6854 52.7703C94.3663 53.1544 94.129 53.5966 93.9694 54.0957C93.8099 54.5948 93.7308 55.1147 93.7308 55.654C93.7308 56.1947 93.8099 56.7132 93.9694 57.2123C94.129 57.7113 94.3677 58.1536 94.6854 58.5376C95.0046 58.9216 95.4001 59.2266 95.8732 59.4526C96.3464 59.6786 96.8987 59.7909 97.5273 59.7909ZM97.5273 58.9147C97.0458 58.9147 96.6322 58.8204 96.284 58.6319C95.9452 58.4513 95.6527 58.1951 95.4292 57.8832C95.2042 57.5663 95.0387 57.2112 94.9408 56.8352C94.7333 56.0613 94.7333 55.2466 94.9408 54.4728C95.0389 54.0968 95.2044 53.7417 95.4292 53.4247C95.6527 53.1128 95.9452 52.8567 96.284 52.6761C96.6309 52.4875 97.0471 52.3932 97.5273 52.3932C98.0087 52.3932 98.4222 52.4875 98.7705 52.6761C99.1093 52.8567 99.4017 53.1128 99.6253 53.4247C99.8473 53.7352 100.01 54.0846 100.114 54.4728C100.321 55.2466 100.321 56.0613 100.114 56.8352C100.016 57.2111 99.8501 57.5662 99.6253 57.8832C99.4017 58.1951 99.1093 58.4513 98.7705 58.6319C98.4236 58.8204 98.0074 58.9147 97.5273 58.9147ZM107.099 59.6134V58.7262H102.903V51.6945H101.848V59.6134H107.099ZM110.61 59.7909C111.238 59.7909 111.789 59.6786 112.264 59.4526C112.737 59.2266 113.134 58.9216 113.451 58.5376C113.77 58.1536 114.008 57.7113 114.167 57.2123C114.327 56.7132 114.406 56.1933 114.406 55.654C114.406 55.1133 114.327 54.5948 114.167 54.0957C114.016 53.6119 113.773 53.1618 113.451 52.7703C113.127 52.3811 112.722 52.0669 112.264 51.8498C111.79 51.621 111.238 51.506 110.61 51.506C109.981 51.506 109.43 51.621 108.955 51.8498C108.497 52.0669 108.092 52.3811 107.768 52.7703C107.449 53.1544 107.211 53.5966 107.052 54.0957C106.892 54.5948 106.813 55.1147 106.813 55.654C106.813 56.1947 106.892 56.7132 107.052 57.2123C107.211 57.7113 107.45 58.1536 107.768 58.5376C108.087 58.9216 108.482 59.2266 108.955 59.4526C109.429 59.6786 109.981 59.7909 110.61 59.7909ZM110.61 58.9147C110.128 58.9147 109.715 58.8204 109.366 58.6319C109.027 58.4513 108.735 58.1951 108.511 57.8832C108.286 57.5663 108.121 57.2112 108.023 56.8352C107.816 56.0613 107.816 55.2466 108.023 54.4728C108.121 54.0968 108.287 53.7417 108.511 53.4247C108.735 53.1128 109.027 52.8567 109.366 52.6761C109.713 52.4875 110.129 52.3932 110.61 52.3932C111.091 52.3932 111.505 52.4875 111.853 52.6761C112.192 52.8567 112.484 53.1128 112.708 53.4247C112.93 53.7352 113.092 54.0846 113.196 54.4728C113.403 55.2466 113.403 56.0613 113.196 56.8352C113.098 57.2111 112.932 57.5662 112.708 57.8832C112.484 58.1951 112.192 58.4513 111.853 58.6319C111.506 58.8204 111.09 58.9147 110.61 58.9147ZM118.139 59.7909C119.138 59.7909 119.908 59.5372 120.448 59.0312C120.989 58.5251 121.258 57.7654 121.258 56.752V51.6945H120.203V56.752C120.203 57.4618 120.027 57.9997 119.676 58.3657C119.325 58.7317 118.812 58.9147 118.139 58.9147C117.428 58.9147 116.884 58.7317 116.507 58.3657C116.129 57.9997 115.941 57.4618 115.941 56.752V51.6945H114.886V56.752C114.886 57.8098 115.173 58.5806 115.746 59.0644C116.319 59.5497 117.117 59.7909 118.139 59.7909ZM123.235 59.6134V56.2307H125.811C126.07 56.2307 126.277 56.2695 126.432 56.3472C126.581 56.4193 126.71 56.5257 126.81 56.6577C126.907 56.7866 126.976 56.9391 127.021 57.1124C127.065 57.2857 127.102 57.4687 127.132 57.6614C127.169 57.8541 127.191 58.0496 127.198 58.2492C127.207 58.4489 127.212 58.636 127.22 58.8093C127.229 58.9826 127.245 59.1407 127.27 59.2807C127.288 59.4035 127.34 59.5188 127.42 59.6134H128.597C128.484 59.4777 128.4 59.3214 128.347 59.1532C128.29 58.9738 128.248 58.7902 128.219 58.6042C128.19 58.4095 128.171 58.2132 128.164 58.0163C128.157 57.8202 128.146 57.6242 128.131 57.4285C128.109 57.2421 128.078 57.0569 128.036 56.874C127.999 56.7044 127.935 56.5416 127.848 56.3915C127.76 56.2449 127.643 56.1183 127.504 56.02C127.335 55.9066 127.144 55.8309 126.943 55.7982V55.776C127.424 55.6429 127.774 55.3947 127.992 55.0329C128.211 54.671 128.319 54.2496 128.319 53.7685C128.319 53.1252 128.107 52.6178 127.681 52.2491C127.257 51.8789 126.665 51.6945 125.911 51.6945H122.181V59.6134H123.235ZM125.433 55.3434H123.235V52.5818H125.855C126.352 52.5818 126.71 52.7066 126.932 52.9589C127.154 53.2098 127.265 53.5356 127.265 53.9349C127.265 54.2232 127.215 54.4575 127.115 54.6392C127.02 54.8147 126.883 54.9634 126.715 55.0717C126.538 55.183 126.34 55.2566 126.133 55.288C125.911 55.3254 125.677 55.3434 125.433 55.3434ZM24.9767 42.234V39.7385H0V42.234H24.9767ZM33.5729 36.0452V22.5199C33.5729 19.8913 34.0058 18.0031 34.8717 16.8552C35.7376 15.7073 37.1363 15.1333 39.0678 15.1333C40.7662 15.1333 41.9484 15.6574 42.6145 16.7055C43.2805 17.7536 43.6136 19.3423 43.6136 21.4718V36.0452H50.707V20.1742C50.707 18.5771 50.5654 17.1214 50.2823 15.8071C49.9993 14.4928 49.5081 13.3782 48.8087 12.4632C48.1094 11.5482 47.1519 10.8328 45.9364 10.3171C44.7209 9.80138 43.164 9.54352 41.2657 9.54352C39.7671 9.54352 38.3018 9.88457 36.8698 10.5667C35.4378 11.2487 34.2736 12.3384 33.3731 13.8357H33.2232V10.2422H26.4795V36.0452H33.5729ZM67.4469 36.6941C69.4784 36.6941 71.3183 36.378 72.9668 35.7458C74.6152 35.1136 76.0223 34.2069 77.1879 33.0257C78.3534 31.8446 79.2526 30.4222 79.8853 28.7585C80.5181 27.0949 80.8345 25.2316 80.8345 23.1687C80.8345 21.1058 80.5181 19.2342 79.8853 17.5539C79.2526 15.8737 78.3534 14.4429 77.1879 13.2617C76.0223 12.0806 74.6152 11.1656 72.9668 10.5167C71.3183 9.86793 69.4784 9.54352 67.4469 9.54352C65.4155 9.54352 63.5839 9.86793 61.952 10.5167C60.3766 11.1286 58.9472 12.0637 57.7559 13.2617C56.5904 14.4429 55.6912 15.8737 55.0585 17.5539C54.4257 19.2342 54.1093 21.1058 54.1093 23.1687C54.1093 25.2316 54.4257 27.0949 55.0585 28.7585C55.6912 30.4222 56.5904 31.8446 57.7559 33.0257C58.944 34.2216 60.3749 35.1491 61.952 35.7458C63.5839 36.378 65.4155 36.6941 67.4469 36.6941ZM67.4469 31.4037C66.248 31.4037 65.249 31.1708 64.4497 30.705C63.6625 30.251 63.0014 29.6076 62.5265 28.8334C62.031 28.0192 61.6843 27.1236 61.5025 26.1882C61.7023 19.1261 62.0436 18.2443 62.5265 17.4791C63.0108 16.7124 63.6698 16.071 64.4497 15.6075C65.249 15.125 66.248 14.8838 67.4469 14.8838C68.6458 14.8838 69.6532 15.125 70.4691 15.6075C71.2598 16.0656 71.9281 16.7077 72.4173 17.4791C72.9002 18.2443 73.2415 19.1261 73.4413 20.1242C73.8413 22.1258 73.8413 24.1866 73.4413 26.1882L72.4173 28.8334C71.9374 29.6124 71.267 30.2565 70.4691 30.705C69.6532 31.1708 68.6458 31.4037 67.4469 31.4037ZM91.5287 36.0452V0.410156H84.4353V36.0452H91.5287ZM108.467 36.6941C110.498 36.6941 112.338 36.378 113.987 35.7458C115.635 35.1136 117.042 34.2069 118.208 33.0257C119.374 31.8446 120.273 30.4222 120.905 28.7585C121.538 27.0949 121.855 25.2316 121.855 23.1687C121.855 21.1058 121.538 19.2342 120.905 17.5539C120.273 15.8737 119.374 14.4429 118.208 13.2617C117.042 12.0806 115.635 11.1656 113.987 10.5167C112.338 9.86793 110.498 9.54352 108.467 9.54352C106.436 9.54352 104.604 9.86793 102.972 10.5167C101.397 11.1286 99.9673 12.0637 98.7761 13.2617C97.6105 14.4429 96.7113 15.8737 96.0786 17.5539C95.4458 19.2342 95.1295 21.1058 95.1295 23.1687C95.1295 25.2316 95.4458 27.0949 96.0786 28.7585C96.7113 30.4222 97.6105 31.8446 98.7761 33.0257C99.9642 34.2216 101.395 35.1491 102.972 35.7458C104.604 36.378 106.436 36.6941 108.467 36.6941ZM108.467 31.4037C107.268 31.4037 106.269 31.1708 105.47 30.705L103.547 28.8334C103.051 28.0192 102.704 27.1236 102.523 26.1882C102.123 24.1866 102.123 22.1258 102.523 20.1242C102.722 19.1261 103.064 18.2443 103.547 17.4791C104.031 16.7124 104.69 16.071 105.47 15.6075C106.269 15.125 107.268 14.8838 108.467 14.8838C109.666 14.8838 110.673 15.125 111.489 15.6075C113.92 18.2443 114.262 19.1261 114.461 20.1242C114.861 22.1258 114.861 24.1866 114.461 26.1882C114.28 27.1236 113.933 28.0192 113.437 28.8334C112.958 29.6124 112.287 30.2565 111.489 30.705C110.673 31.1708 109.666 31.4037 108.467 31.4037ZM136.695 45.7775C139.659 45.7775 142.023 45.3783 143.788 44.5797C145.553 43.7812 146.902 42.8079 147.835 41.66C148.767 40.5121 149.375 39.2727 149.658 37.9418C149.941 36.6109 150.082 35.4297 150.082 34.3983V10.2422H143.339V13.686H143.239C142.373 12.1887 141.299 11.124 140.017 10.4918C138.735 9.85961 137.244 9.54352 135.546 9.54352C133.748 9.54352 132.158 9.89288 130.775 10.5916L127.304 13.4115C126.35 14.6335 125.63 16.0209 125.181 17.504C124.696 19.0634 124.452 20.6874 124.456 22.3202C124.456 24.0837 124.664 25.7557 125.081 27.3361C125.497 28.9166 126.155 30.2974 127.054 31.4786C127.965 32.6697 129.147 33.6276 130.501 34.2735C131.899 34.9556 133.565 35.2966 135.496 35.2966L139.967 34.3234C141.357 33.6983 142.505 32.6384 143.239 31.3039H143.339V34.6977C143.372 36.5277 142.931 38.0416 142.015 39.2394C141.099 40.4373 139.642 41.0362 137.644 41.0362C136.379 41.0362 135.263 40.7783 134.297 40.2626C133.331 39.7468 132.682 38.8235 132.349 37.4926H125.306C125.405 38.9566 125.813 40.2127 126.529 41.2607C127.235 42.2994 128.155 43.1756 129.227 43.8311C130.309 44.4965 131.508 44.9873 132.824 45.3034C134.139 45.6195 135.429 45.7775 136.695 45.7775ZM137.294 29.9563C136.195 29.9563 135.28 29.7234 134.547 29.2576C133.825 28.803 133.218 28.1881 132.774 27.4609L131.824 24.9904C131.642 24.0784 131.55 23.1505 131.55 22.2204C131.55 21.2555 131.658 20.3322 131.874 19.4505C132.091 18.5687 132.441 17.7868 132.923 17.1047C133.406 16.4227 134.006 15.882 134.722 15.4827C135.438 15.0834 136.295 14.8838 137.294 14.8838C138.46 14.8838 139.426 15.1001 140.192 15.5326C140.958 15.9652 141.574 16.5474 142.04 17.2794C142.506 18.0114 142.839 18.8516 143.039 19.7998C143.239 20.7481 143.339 21.7546 143.339 22.8193C143.343 23.7227 143.217 24.622 142.964 25.4895C142.729 26.3078 142.349 27.0771 141.84 27.7603C141.341 28.4258 140.708 28.9582 139.942 29.3574C139.176 29.7567 138.293 29.9563 137.294 29.9563ZM158.43 45.0788C160.861 45.0788 162.76 44.6296 164.125 43.7313C165.49 42.8329 166.556 41.3356 167.322 39.2394L178.112 10.2422H170.769L165.124 27.9101H165.024L159.18 10.2422H151.637L160.678 34.4482C160.878 34.9473 160.978 35.4796 160.978 36.0452C160.978 36.8105 160.753 37.5093 160.304 38.1414C159.854 38.7736 159.163 39.1396 158.23 39.2394C157.531 39.2727 156.832 39.2561 156.132 39.1895C155.433 39.123 154.75 39.0564 154.084 38.9899V44.8292C154.817 44.8958 155.541 44.954 156.257 45.0039C156.973 45.0538 157.698 45.0788 158.43 45.0788Z" fill="white"/>
</svg>
